<svg width="223" height="103" viewBox="0 0 223 103" fill="none" xmlns="http://www.w3.org/2000/svg">
<path d="M26.136 83.436V84.786H21.024V88.98H25.596V90.33H21.024V94.65H26.136V96H19.386V83.436H26.136ZM27.4445 86.136H29.2085L32.2865 94.488L35.3465 86.136H37.0925L33.2225 96H31.3145L27.4445 86.136ZM42.8984 87.36C41.2964 87.36 39.9644 88.422 39.7844 90.348H46.0124C46.0304 88.422 44.5904 87.36 42.8984 87.36ZM47.5064 92.958C47.0024 94.758 45.4184 96.162 42.9704 96.162C40.1624 96.162 38.0924 94.182 38.0924 91.05C38.0924 87.936 40.0904 85.974 42.9704 85.974C45.8324 85.974 47.7044 87.99 47.7044 90.69C47.7044 91.05 47.6864 91.338 47.6504 91.68H39.7664C39.8924 93.678 41.2964 94.776 42.9704 94.776C44.4464 94.776 45.3824 94.02 45.7424 92.958H47.5064ZM51.5045 90.636V96H49.8665V86.136H51.5045V87.738C52.0625 86.64 53.1245 85.956 54.6905 85.956V87.648H54.2585C52.6925 87.648 51.5045 88.35 51.5045 90.636ZM60.3253 94.128L63.3853 86.136H65.0773L59.1373 100.644H57.4453L59.3893 95.892L55.4113 86.136H57.2293L60.3253 94.128ZM68.3619 87.972C68.9919 86.874 70.3059 85.974 72.0519 85.974C74.7159 85.974 76.7319 87.954 76.7319 91.032C76.7319 94.092 74.6979 96.162 72.0519 96.162C70.2519 96.162 68.9739 95.262 68.3619 94.182V96H66.7239V82.68H68.3619V87.972ZM75.0579 91.032C75.0579 88.71 73.5279 87.396 71.7099 87.396C69.9279 87.396 68.3619 88.764 68.3619 91.05C68.3619 93.372 69.9279 94.722 71.7099 94.722C73.5279 94.722 75.0579 93.354 75.0579 91.032ZM88.248 91.05C88.248 94.182 85.998 96.162 83.19 96.162C80.4 96.162 78.276 94.182 78.276 91.05C78.276 87.936 80.472 85.974 83.262 85.974C86.07 85.974 88.248 87.936 88.248 91.05ZM79.95 91.05C79.95 93.552 81.48 94.722 83.19 94.722C84.9 94.722 86.574 93.552 86.574 91.05C86.574 88.566 84.936 87.396 83.244 87.396C81.516 87.396 79.95 88.566 79.95 91.05ZM89.7896 91.032C89.7896 87.954 91.8236 85.974 94.4876 85.974C96.0356 85.974 97.4576 86.766 98.1416 87.9V82.68H99.7976V96H98.1416V94.146C97.5476 95.244 96.2696 96.162 94.4696 96.162C91.8236 96.162 89.7896 94.092 89.7896 91.032ZM98.1416 91.05C98.1416 88.764 96.5936 87.396 94.7936 87.396C92.9936 87.396 91.4636 88.71 91.4636 91.032C91.4636 93.354 92.9936 94.722 94.7936 94.722C96.5936 94.722 98.1416 93.372 98.1416 91.05ZM106.31 94.128L109.37 86.136H111.062L105.122 100.644H103.43L105.374 95.892L101.396 86.136H103.214L106.31 94.128ZM116.895 89.718C116.895 85.956 119.649 83.292 123.159 83.292C125.877 83.292 128.037 84.66 128.973 87.09H127.011C126.327 85.578 124.995 84.732 123.159 84.732C120.531 84.732 118.569 86.64 118.569 89.718C118.569 92.778 120.531 94.686 123.159 94.686C124.995 94.686 126.327 93.84 127.011 92.346H128.973C128.037 94.758 125.877 96.108 123.159 96.108C119.649 96.108 116.895 93.48 116.895 89.718ZM130.799 91.032C130.799 87.954 132.833 85.974 135.479 85.974C137.315 85.974 138.575 86.91 139.151 87.936V86.136H140.807V96H139.151V94.164C138.557 95.226 137.279 96.162 135.461 96.162C132.833 96.162 130.799 94.092 130.799 91.032ZM139.151 91.05C139.151 88.764 137.603 87.396 135.803 87.396C134.003 87.396 132.473 88.71 132.473 91.032C132.473 93.354 134.003 94.722 135.803 94.722C137.603 94.722 139.151 93.372 139.151 91.05ZM150.793 96V90.42C150.793 88.404 149.695 87.378 148.039 87.378C146.365 87.378 145.213 88.422 145.213 90.546V96H143.575V86.136H145.213V87.54C145.861 86.514 147.049 85.956 148.381 85.956C150.667 85.956 152.413 87.36 152.413 90.186V96H150.793ZM159.114 84.786V83.454H167.61V84.786H164.19V96H162.552V84.786H159.114ZM171.264 90.636V96H169.626V86.136H171.264V87.738C171.822 86.64 172.884 85.956 174.45 85.956V87.648H174.018C172.452 87.648 171.264 88.35 171.264 90.636ZM175.729 91.032C175.729 87.954 177.763 85.974 180.409 85.974C182.245 85.974 183.505 86.91 184.081 87.936V86.136H185.737V96H184.081V94.164C183.487 95.226 182.209 96.162 180.391 96.162C177.763 96.162 175.729 94.092 175.729 91.032ZM184.081 91.05C184.081 88.764 182.533 87.396 180.733 87.396C178.933 87.396 177.403 88.71 177.403 91.032C177.403 93.354 178.933 94.722 180.733 94.722C182.533 94.722 184.081 93.372 184.081 91.05ZM188.505 96V86.136H190.143V96H188.505ZM189.351 84.534C188.721 84.534 188.235 84.048 188.235 83.418C188.235 82.788 188.721 82.302 189.351 82.302C189.945 82.302 190.431 82.788 190.431 83.418C190.431 84.048 189.945 84.534 189.351 84.534ZM200.153 96V90.42C200.153 88.404 199.055 87.378 197.399 87.378C195.725 87.378 194.573 88.422 194.573 90.546V96H192.935V86.136H194.573V87.54C195.221 86.514 196.409 85.956 197.741 85.956C200.027 85.956 201.773 87.36 201.773 90.186V96H200.153Z" fill="#B6B4C2"/>
<path d="M18.1839 63.399C15.2579 63.399 12.6359 62.924 10.3179 61.974C7.99988 61.024 6.13788 59.618 4.73188 57.756C3.36388 55.894 2.64188 53.652 2.56588 51.03H12.9399C13.0919 52.512 13.6049 53.652 14.4789 54.45C15.3529 55.21 16.4929 55.59 17.8989 55.59C19.3429 55.59 20.4829 55.267 21.3189 54.621C22.1549 53.937 22.5729 53.006 22.5729 51.828C22.5729 50.84 22.2309 50.023 21.5469 49.377C20.9009 48.731 20.0839 48.199 19.0959 47.781C18.1459 47.363 16.7779 46.888 14.9919 46.356C12.4079 45.558 10.2989 44.76 8.66488 43.962C7.03088 43.164 5.62488 41.986 4.44688 40.428C3.26888 38.87 2.67988 36.837 2.67988 34.329C2.67988 30.605 4.02888 27.698 6.72688 25.608C9.42488 23.48 12.9399 22.416 17.2719 22.416C21.6799 22.416 25.2329 23.48 27.9309 25.608C30.6289 27.698 32.0729 30.624 32.2629 34.386H21.7179C21.6419 33.094 21.1669 32.087 20.2929 31.365C19.4189 30.605 18.2979 30.225 16.9299 30.225C15.7519 30.225 14.8019 30.548 14.0799 31.194C13.3579 31.802 12.9969 32.695 12.9969 33.873C12.9969 35.165 13.6049 36.172 14.8209 36.894C16.0369 37.616 17.9369 38.395 20.5209 39.231C23.1049 40.105 25.1949 40.941 26.7909 41.739C28.4249 42.537 29.8309 43.696 31.0089 45.216C32.1869 46.736 32.7759 48.693 32.7759 51.087C32.7759 53.367 32.1869 55.438 31.0089 57.3C29.8689 59.162 28.1969 60.644 25.9929 61.746C23.7889 62.848 21.1859 63.399 18.1839 63.399ZM63.6832 55.932H48.7492L46.3552 63H36.1522L50.6302 22.986H61.9162L76.3942 63H66.0772L63.6832 55.932ZM61.1752 48.408L56.2162 33.759L51.3142 48.408H61.1752ZM109.586 22.986V30.795H98.9836V63H89.2366V30.795H78.6346V22.986H109.586ZM138.987 63L130.836 50.745L123.654 63H112.596L125.421 42.651L112.311 22.986H123.654L131.691 35.07L138.759 22.986H149.817L137.106 43.164L150.33 63H138.987Z" fill="#EF5DA8"/>
<path d="M181.272 22.986V30.795H164.97V39.231H177.168V46.812H164.97V63H155.223V22.986H181.272ZM191.297 27.888C189.587 27.888 188.181 27.394 187.079 26.406C186.015 25.38 185.483 24.126 185.483 22.644C185.483 21.124 186.015 19.87 187.079 18.882C188.181 17.856 189.587 17.343 191.297 17.343C192.969 17.343 194.337 17.856 195.401 18.882C196.503 19.87 197.054 21.124 197.054 22.644C197.054 24.126 196.503 25.38 195.401 26.406C194.337 27.394 192.969 27.888 191.297 27.888ZM196.142 31.194V63H186.395V31.194H196.142ZM220.933 54.735V63H215.974C212.44 63 209.685 62.145 207.709 60.435C205.733 58.687 204.745 55.856 204.745 51.942V39.288H200.869V31.194H204.745V23.442H214.492V31.194H220.876V39.288H214.492V52.056C214.492 53.006 214.72 53.69 215.176 54.108C215.632 54.526 216.392 54.735 217.456 54.735H220.933Z" fill="#1D1617"/>
</svg>
