<svg width="440" height="478" viewBox="0 0 440 478" fill="none" xmlns="http://www.w3.org/2000/svg">
<g clip-path="url(#clip0_6_5045)">
<path d="M-1 208.432C-1 208.432 25.3424 212.6 52.0376 309.52C78.7328 406.44 152.821 478 249.449 478C346.077 478 440 343.177 440 255.496V-39H-1V208.432Z" fill="#F178B6"/>
<path d="M251.095 149.021L256.818 194.552L203.585 197.344V163.648L251.095 149.021Z" fill="#FFEDE5"/>
<path d="M203.585 185.863C203.585 185.863 236.865 202.416 246.273 150.516L203.585 163.648V185.863Z" fill="#86543D"/>
<path d="M195.296 141.218C199.13 140.058 200.541 133.472 198.447 126.507C196.354 119.543 191.548 114.837 187.713 115.997C183.879 117.157 182.467 123.743 184.561 130.707C186.655 137.672 191.461 142.378 195.296 141.218Z" fill="#86543D"/>
<path d="M189.355 108.916C189.355 108.916 190.374 180.712 221.46 182.993C252.545 185.273 255.015 127.396 255.211 108.916C255.407 90.4367 235.768 85.1287 218.206 85.3253C200.645 85.5219 190.178 94.5652 189.355 108.916Z" fill="#FFEDE5"/>
<path d="M253.878 124.958C253.878 124.958 245.96 113.949 246.234 100.699C246.234 100.699 219.343 113.635 201.507 103.412C201.507 103.412 190.845 110.057 190.374 124.054L186.729 116.426C186.729 116.426 184.769 100.542 185.866 96.8063C186.533 94.5652 188.101 92.6779 190.178 91.6556C190.178 91.6556 181.123 71.5638 203.232 63.5821C203.232 63.5821 203.31 68.4183 212.13 67.7499C220.95 67.0815 261.797 64.6044 258.543 86.4656C258.504 86.4262 267.598 100.699 253.878 124.958Z" fill="#3B2645"/>
<path d="M263.099 126.895C265.022 119.881 263.451 113.332 259.589 112.266C255.727 111.201 251.037 116.023 249.114 123.037C247.191 130.051 248.762 136.601 252.624 137.667C256.485 138.732 261.175 133.91 263.099 126.895Z" fill="#FFEDE5"/>
<path d="M253.878 129.795C253.839 129.795 253.761 129.795 253.721 129.755C253.525 129.677 253.447 129.441 253.525 129.244L256.975 122.088C257.053 121.892 257.289 121.813 257.485 121.892C257.681 121.97 257.759 122.206 257.681 122.403L254.231 129.559C254.153 129.716 254.035 129.795 253.878 129.795Z" fill="#472938"/>
<path d="M220.245 149.1C218.324 149.1 214.6 148.078 213.738 146.505C213.15 145.404 214.326 139.231 216.599 128.89C216.991 127.042 217.344 125.588 217.462 124.88C217.932 122.285 216.482 121.577 216.403 121.577C216.207 121.498 216.129 121.263 216.207 121.066C216.286 120.869 216.521 120.791 216.717 120.869C216.795 120.909 218.794 121.813 218.206 125.037C218.089 125.745 217.775 127.2 217.344 129.087C216.286 133.884 213.816 145.129 214.404 146.151C215.11 147.449 219.5 148.628 220.794 148.274C222.087 147.92 224.635 146.033 224.674 146.033C224.831 145.915 225.106 145.955 225.223 146.112C225.341 146.269 225.302 146.544 225.145 146.662C225.027 146.741 222.44 148.628 221.029 149.021C220.794 149.061 220.558 149.1 220.245 149.1Z" fill="#472938"/>
<path d="M221.029 160.66C217.501 160.66 214.757 159.795 214.718 159.795C214.522 159.716 214.404 159.519 214.482 159.284C214.561 159.087 214.757 158.969 214.992 159.048C215.11 159.087 228.438 163.215 233.455 152.796C233.534 152.599 233.769 152.521 233.965 152.599C234.161 152.678 234.239 152.914 234.161 153.111C231.142 159.284 225.458 160.66 221.029 160.66Z" fill="#472938"/>
<path d="M235.572 122.717C236.826 122.717 237.845 123.74 237.845 124.998V126.688C237.845 127.947 236.826 128.969 235.572 128.969C234.317 128.969 233.298 127.947 233.298 126.688V124.998C233.298 123.74 234.278 122.717 235.572 122.717Z" fill="#472938"/>
<path d="M204.957 124.29C206.211 124.172 207.309 125.076 207.426 126.335L207.583 128.025C207.701 129.284 206.799 130.384 205.545 130.502C204.29 130.62 203.193 129.716 203.075 128.458L202.918 126.767C202.801 125.509 203.702 124.408 204.957 124.29Z" fill="#472938"/>
<path d="M243.373 115.443C240.629 113.871 237.375 113.635 234.435 114.775C229.535 116.741 228.085 115.404 227.771 114.736C227.457 114.067 230.75 110.804 237.336 111.079C241.844 111.236 243.373 115.443 243.373 115.443Z" fill="#472938"/>
<path d="M195.392 119.061C197.822 117.055 201.037 116.308 204.094 116.937C209.269 118.078 210.445 116.544 210.641 115.837C210.837 115.129 207.074 112.455 200.606 113.753C196.215 114.696 195.392 119.061 195.392 119.061Z" fill="#472938"/>
<path d="M318.598 217.632L292.922 208.039C225.929 229.074 196.96 212.639 185.749 201.276C185.749 201.276 145.098 207.016 139.689 211.499C134.279 215.981 149.724 352.849 150.508 382.81C151.018 401.919 148.626 429.677 146.823 447.214C176.458 466.755 211.19 477.961 249.449 477.961C272.694 477.961 295.822 470.136 317.5 457.043C313.854 426.532 306.25 362.797 305.936 353.635C305.544 341.565 318.598 217.632 318.598 217.632Z" fill="#FA674E"/>
<path d="M203.585 197.344L185.749 201.276C196.96 212.639 225.929 229.074 292.961 208.078L256.818 194.552L203.585 197.344Z" fill="#FFEDE5"/>
<path d="M307.582 329.14C307.582 329.14 290.217 245.431 279.045 212.01C277.477 207.292 276.026 203.596 274.772 201.276L259.758 195.653C259.758 195.653 261.914 203.753 264.737 215.195C269.99 236.309 277.594 268.746 278.535 282.429H198.136V198.524L184.416 201.276C184.416 201.276 184.416 201.394 184.377 201.59C183.279 208.196 163.17 324.658 148.234 350.568C148.234 350.568 150.312 376.322 150.469 382.81C150.978 401.919 148.587 429.677 146.784 447.214C176.419 466.755 211.15 477.961 249.41 477.961C272.655 477.961 295.783 470.136 317.461 457.043C313.815 426.532 306.21 362.797 305.897 353.635C305.858 350.765 306.524 341.525 307.582 329.14Z" fill="#3B2645"/>
<path d="M147.686 343.766L160.935 286.44L144.04 302.364L147.686 343.766Z" fill="#543753"/>
<path d="M238.394 409.114C227.771 409.114 218.794 405.261 211.699 397.711C200.174 385.405 195.627 365.195 193.863 350.411C191.942 334.409 192.726 321.158 192.765 321.04L192.805 320.686H284.023L284.062 321.04C284.062 321.158 284.886 334.448 282.965 350.411C281.201 365.195 276.654 385.405 265.129 397.711C257.994 405.261 249.018 409.114 238.394 409.114ZM193.51 321.433C193.393 323.675 192.922 335.903 194.647 350.333C196.411 364.998 200.919 385.012 212.287 397.161C219.226 404.553 228.006 408.327 238.394 408.327C248.782 408.327 257.563 404.553 264.502 397.161C275.87 385.012 280.378 364.998 282.142 350.333C283.866 335.903 283.396 323.675 283.278 321.433H193.51Z" fill="white"/>
<path d="M139.649 211.499C139.649 211.499 124.087 224.12 88.219 297.331L137.297 339.638L165.521 288.091C165.521 288.091 153.369 209.336 139.649 211.499Z" fill="#FA674E"/>
<path d="M147.293 442.417C147.293 442.417 168.893 452.443 172.264 451.067C175.635 449.691 171.48 421.224 170.421 420.909C169.363 420.595 150.586 406.165 146.823 407.069C144.197 407.698 141.766 416.152 141.766 416.152L101.586 385.523L131.809 334.92L88.2191 297.331C88.2191 297.331 74.6559 321.237 63.7975 343.609C82.0647 387.095 110.681 423.347 146.823 447.214L147.293 442.417Z" fill="#FFEDE5"/>
<path d="M88.219 297.331L131.809 334.92L127.537 342.076L88.219 297.331Z" fill="#86543D"/>
<path d="M318.598 217.632C325.575 220.07 373.203 281.21 373.203 281.21L321.067 321.001C321.067 321.001 301.742 294.343 299.899 281.21C298.057 268.078 304.486 212.717 318.598 217.632Z" fill="#FA674E"/>
<path d="M373.242 281.25C373.242 281.25 424.163 353.36 426.319 369.048C428.475 384.736 422.046 401.879 379.397 401.604C336.747 401.329 299.782 396.886 290.099 398.734C280.417 400.582 258.818 401.801 255.133 400.739C251.448 399.677 238.708 369.048 239.335 364.88C239.962 360.713 246.391 358.275 246.391 358.275C246.391 358.275 244.588 355.523 245.098 352.888C245.607 350.254 267.951 355.719 272.851 356.27C277.751 356.82 288.453 368.969 291.197 369.599C293.941 370.228 360.816 359.966 360.816 359.966L323.458 319.192L373.242 281.25Z" fill="#FFEDE5"/>
<path d="M373.242 281.25L323.458 319.192L329.26 325.562L373.242 281.25Z" fill="#86543D"/>
<path d="M360.816 359.966L386.139 355.523C386.139 355.523 374.026 354.893 372.027 330.516L360.816 359.966Z" fill="#86543D"/>
<path d="M371.988 321.04H251.448C250.703 333.622 251.84 344.199 253.682 352.77C260.699 353.832 269.95 355.916 272.89 356.27C277.79 356.82 288.492 369.009 291.236 369.599C293.98 370.188 360.816 359.966 360.816 359.966C373.987 353.95 371.988 321.04 371.988 321.04Z" fill="#E3DCF7"/>
<path d="M279.515 357.213C271.675 353.36 253.682 352.81 253.682 352.81C260.699 353.871 269.95 355.955 272.89 356.309C277.79 356.859 288.492 369.048 291.236 369.638C292.451 369.913 305.701 368.104 320.362 366.021C298.096 368.301 287.316 361.027 279.515 357.213Z" fill="#3B2645"/>
<path d="M251.448 321.04C251.448 321.04 242.04 312.429 243.765 309.048C245.49 305.667 252.859 312.036 252.859 312.036C252.859 312.036 246.548 295.837 251.213 294.186C255.878 292.534 271.597 311.093 271.597 311.093C271.597 311.093 268.03 293.95 270.146 293.242C272.263 292.534 284.572 308.615 284.572 308.615C284.572 308.615 289.472 288.131 294.568 288.052C299.664 287.973 296.018 311.486 296.018 311.486C296.018 311.486 301.546 293.438 305.74 294.657C309.934 295.876 310.326 315.182 310.326 315.182C310.326 315.182 311.071 300.398 314.09 299.808C317.108 299.218 321.067 321.04 321.067 321.04H251.448Z" fill="#679E97"/>
<path d="M325.144 321.04C325.144 321.04 331.298 300.712 334.278 300.437C337.257 300.162 337.453 317.226 337.453 317.226C337.453 317.226 343.49 297.213 345.332 296.702C347.174 296.191 348.39 310.031 348.39 310.031C348.39 310.031 358.033 296.152 360.267 296.663C362.502 297.174 359.562 310.031 359.562 310.031C359.562 310.031 368.774 296.899 374.811 298.864C380.847 300.83 372.066 321.001 372.066 321.001L325.144 321.04Z" fill="#679E97"/>
<path d="M371.988 321.04C371.988 321.04 385.59 308.34 382.023 305.549C378.456 302.757 362.07 313.294 362.07 313.294C362.07 313.294 375.477 295.798 374.85 290.568C374.222 285.339 348.782 318.563 348.782 318.563C348.782 318.563 359.797 294.854 357.053 293.596C354.309 292.338 342.98 319.114 342.98 319.114C342.98 319.114 346.351 304.29 342.98 304.369C339.609 304.448 334.944 319.861 334.944 319.861C334.944 319.861 330.279 303.504 327.104 302.875C323.929 302.246 324.36 312.193 324.36 312.193C324.36 312.193 321.498 304.487 318.637 304.92C315.775 305.352 319.146 315.575 319.146 315.575C319.146 315.575 310.366 301.027 305.426 300.791C300.487 300.555 298.096 316.125 298.096 316.125C298.096 316.125 299.742 301.145 296.45 300.752C293.157 300.359 290.844 316.951 290.844 316.951C290.844 316.951 289.198 293.36 282.651 292.731C276.105 292.102 281.201 310.778 281.201 310.778C281.201 310.778 270.578 303.386 267.99 304.92C265.403 306.453 271.675 321.04 271.675 321.04H371.988Z" fill="#85CCC6"/>
<path d="M310.052 303.347C310.013 303.347 310.013 303.347 310.052 303.347C309.817 303.308 309.66 303.15 309.66 302.914L313.737 261.473C313.776 261.276 313.933 261.079 314.168 261.119C314.364 261.158 314.56 261.315 314.521 261.551L310.444 302.993C310.405 303.19 310.248 303.347 310.052 303.347Z" fill="#472938"/>
</g>
<defs>
<clipPath id="clip0_6_5045">
<rect width="441" height="517" fill="white" transform="translate(-1 -39)"/>
</clipPath>
</defs>
</svg>
