<svg width="440" height="504" viewBox="0 0 440 504" fill="none" xmlns="http://www.w3.org/2000/svg">
<g clip-path="url(#clip0_6_3747)">
<path d="M-19 260.035C-19 260.035 56.5992 102.94 136.226 102.94C215.854 102.94 271.61 266.007 351.237 266.007C430.864 266.007 422.045 181.128 458 181.128V-62.8374H-19V260.035Z" fill="#F178B6"/>
<path d="M190.329 206.752L168.45 213.741C168.45 213.741 161.794 239.408 163.871 243.982C165.949 248.557 177.651 252.03 183.206 249.277C188.76 246.524 207.586 228.523 207.586 228.523L190.329 206.752Z" fill="#FFEDE5"/>
<path d="M210.384 181.975C210.384 181.975 196.392 197.815 190.329 206.752L205.932 231.106L222.256 216.452C222.256 216.452 219.542 175.918 210.384 181.975Z" fill="#FA674E"/>
<path d="M187.827 207.557V231.954L194.866 213.826L190.329 206.752L187.827 207.557Z" fill="#86543D"/>
<path d="M186.767 193.411C188.675 193.876 189.269 192.563 190.838 195.062C192.406 197.561 195.714 207.345 194.823 208.828C193.933 210.31 184.054 219.84 183.333 219.84C182.612 219.84 180.789 217.172 181.17 216.24C181.17 216.24 178.838 217.638 177.312 217.383C177.312 217.383 173.92 219.162 172.563 218.824C171.206 218.485 163.278 206.795 165.143 203.703C167.009 200.611 168.196 202.22 169.298 200.992C170.401 199.764 172.266 197.731 174.514 197.943C176.761 198.154 177.778 194.681 181.043 195.189C184.308 195.698 182.527 192.352 186.767 193.411Z" fill="#FFEDE5"/>
<path d="M181.128 216.663C180.958 216.663 180.831 216.579 180.746 216.452C180.619 216.24 180.704 215.986 180.916 215.901C180.958 215.901 184.774 213.868 185.792 212.386L185.877 212.301C185.919 212.301 188.082 210.353 188.802 208.87L185.114 200.526C185.029 200.314 185.114 200.06 185.326 199.976C185.538 199.891 185.792 199.976 185.877 200.187L189.693 208.87L189.608 209.04C188.972 210.649 186.767 212.64 186.428 212.936C185.241 214.588 181.425 216.579 181.255 216.663C181.255 216.621 181.213 216.663 181.128 216.663Z" fill="#472938"/>
<path d="M177.269 217.807C177.1 217.807 176.973 217.722 176.888 217.553L172.181 207.981C172.097 207.769 172.181 207.515 172.393 207.43C172.605 207.345 172.86 207.43 172.945 207.642L177.651 217.214C177.736 217.426 177.651 217.68 177.439 217.765C177.397 217.807 177.354 217.807 177.269 217.807Z" fill="#472938"/>
<path d="M183.629 215.181C183.46 215.181 183.333 215.096 183.248 214.927L178.838 205.439C178.753 205.228 178.838 204.973 179.05 204.889C179.262 204.804 179.517 204.889 179.601 205.1L184.011 214.588C184.096 214.8 184.011 215.054 183.799 215.139C183.757 215.181 183.672 215.181 183.629 215.181Z" fill="#472938"/>
<path d="M183.29 220.264C182.612 220.264 181.849 219.205 181.552 218.781C181.34 218.485 180.874 217.722 180.704 216.96C179.898 217.341 178.499 217.934 177.354 217.849C176.676 218.188 173.793 219.586 172.436 219.247C171.673 219.078 170.274 217.214 169.51 216.113C169.383 215.901 169.426 215.647 169.595 215.52C169.765 215.393 170.062 215.435 170.189 215.605C171.503 217.511 172.394 218.315 172.606 218.4C173.496 218.612 175.786 217.638 177.058 217.002L177.185 216.96H177.312C178.711 217.172 180.874 215.859 180.916 215.859L182.018 215.223L181.552 216.409C181.51 216.536 181.51 216.96 181.934 217.765C182.442 218.697 183.036 219.289 183.29 219.417C184.35 218.824 191.262 212.301 193.721 209.675C191.431 210.226 189.226 209.251 189.142 209.209C188.93 209.124 188.845 208.87 188.93 208.658C189.014 208.447 189.269 208.362 189.481 208.447C189.523 208.447 192.279 209.675 194.611 208.447C194.908 208.277 195.12 208.362 195.205 208.489C195.332 208.574 195.417 208.785 195.332 208.997C195.035 209.76 184.308 220.264 183.29 220.264Z" fill="#472938"/>
<path d="M258.338 156.519L279.581 169.861V197.519C279.581 197.519 257.49 243.432 258.338 259.993L207.755 269.438C207.755 269.438 195.629 220.814 210.384 181.932L232.941 166.092L258.338 156.519Z" fill="#FA674E"/>
<path d="M203.091 230.386C202.879 230.386 202.667 230.217 202.667 229.963C202.498 218.231 203.43 207.303 205.508 197.392C205.55 197.18 205.762 197.011 206.017 197.053C206.229 197.095 206.398 197.307 206.356 197.561C204.321 207.388 203.346 218.273 203.558 229.921C203.515 230.175 203.346 230.386 203.091 230.386Z" fill="#472938"/>
<path d="M279.581 197.561L263.002 195.062L272.288 213.826L279.581 197.561Z" fill="#86543D"/>
<path d="M252.826 139.535L258.338 156.519C252.445 158.806 247.145 162.364 242.82 166.981C235.569 174.69 232.771 181.975 228.404 181.975C224.037 181.975 232.983 166.134 232.983 166.134L231.838 151.31L252.826 139.535Z" fill="#FFEDE5"/>
<path d="M232.39 158.849C232.39 158.849 242.099 157.409 247.06 143.474L231.796 151.31L232.39 158.849Z" fill="#86543D"/>
<path d="M225.181 104.846C225.181 104.846 215.811 150.505 220.687 153.639C225.563 156.773 244.813 154.063 251.978 141.356C259.144 128.65 250.155 104.846 225.181 104.846Z" fill="#FFEDE5"/>
<path d="M222.171 121.068C222.171 121.068 213.352 132.462 214.242 133.563C215.133 134.664 219.966 136.231 219.966 136.231L222.171 121.068Z" fill="#FFEDE5"/>
<path d="M248.629 134.452C248.629 134.452 244.219 132.25 247.06 122.635C247.06 122.635 241.336 112.512 237.605 110.861C233.874 109.209 224.376 108.7 224.376 108.7C224.376 108.7 222.468 95.3586 225.648 93.9609C228.828 92.5632 258.254 93.368 263.808 103.745C265.674 107.26 264.486 109.378 264.486 109.378C264.486 109.378 267.624 113.529 267.073 117.087C266.522 120.645 257.872 133.817 257.872 133.817L248.629 134.452Z" fill="#3B2645"/>
<path d="M257.429 137.924C260.376 134.98 261.209 131.038 259.288 129.119C257.367 127.201 253.421 128.032 250.473 130.976C247.526 133.92 246.694 137.862 248.615 139.781C250.535 141.7 254.482 140.869 257.429 137.924Z" fill="#FFEDE5"/>
<path d="M224.418 143.559C222.425 143.559 220.645 143.008 220.517 142.966C220.305 142.881 220.178 142.669 220.263 142.415C220.348 142.203 220.56 142.076 220.814 142.161C220.857 142.161 226.623 144.025 228.616 140.975C228.743 140.763 228.997 140.721 229.209 140.848C229.421 140.975 229.464 141.229 229.337 141.441C228.192 143.093 226.241 143.559 224.418 143.559Z" fill="#472938"/>
<path d="M250.876 136.401C250.749 136.401 250.579 136.316 250.537 136.189C250.41 135.977 250.452 135.723 250.664 135.596L254.098 133.436C254.31 133.309 254.565 133.351 254.692 133.563C254.819 133.775 254.777 134.029 254.565 134.156L251.13 136.316C251.046 136.358 250.961 136.401 250.876 136.401Z" fill="#472938"/>
<path d="M228.022 121.11C228.913 121.322 229.464 122.212 229.252 123.059L228.997 124.202C228.785 125.092 227.895 125.642 227.047 125.431C226.157 125.219 225.605 124.329 225.817 123.482L226.072 122.339C226.284 121.449 227.132 120.899 228.022 121.11Z" fill="#3B2645"/>
<path d="M226.242 116.663C226.242 116.663 231.838 116.282 233.28 120.856C233.28 120.856 233.11 116.07 229.591 115.35C226.072 114.63 224.927 116.451 226.242 116.663Z" fill="#3B2645"/>
<path d="M265.886 161.263C246.848 158.044 259.483 198.154 259.483 198.154L287.976 206.752L298.534 174.351C281.955 167.066 265.886 161.263 265.886 161.263Z" fill="#FA674E"/>
<path d="M292.428 256.054C292.428 256.054 282.379 259.569 281.404 261.136C280.429 262.703 281.362 268.252 281.362 268.252C280.302 269.946 279.454 271.725 278.86 273.631C278.012 276.469 280.132 275.622 282.634 278.502C285.135 281.382 287.17 280.662 288.612 281.975C290.054 283.288 292.979 282.864 294.124 283.415C295.269 283.966 297.431 285.829 298.746 285.744C300.06 285.66 303.155 281.17 305.699 275.537C308.243 269.904 307.777 265.329 308.922 258.553C310.066 251.776 336.821 208.192 333.683 196.375C332.114 190.488 315.07 181.678 298.491 174.351L287.934 206.752L303.028 211.327L292.428 256.054Z" fill="#FFEDE5"/>
<path d="M307.565 212.936C307.522 212.936 307.48 212.936 307.437 212.936L302.901 211.708C302.689 211.666 302.519 211.411 302.604 211.2C302.646 210.988 302.901 210.861 303.113 210.903L307.649 212.131C307.861 212.174 308.031 212.428 307.946 212.64C307.946 212.809 307.777 212.936 307.565 212.936Z" fill="#472938"/>
<path d="M342.036 364.694L358.529 356.435C358.529 356.435 358.148 353.216 361.455 349.574C364.762 345.931 362.303 337.502 359.208 336.147C356.113 334.792 354.586 335.723 351.915 331.361L328.044 341.695L342.036 364.694Z" fill="#FFEDE5"/>
<path d="M359.165 336.147C362.261 337.502 364.677 345.931 361.413 349.574C358.148 353.216 358.487 356.435 358.487 356.435C372.606 358.341 385.877 379.01 388.379 381.34C390.881 383.669 401.014 382.018 401.311 380.281C401.608 378.544 379.602 320.56 377.567 319.29C375.532 318.019 351.873 331.361 351.873 331.361C354.544 335.723 356.07 334.792 359.165 336.147Z" fill="#FA674E"/>
<path d="M401.311 380.281C401.565 378.544 379.602 320.56 377.567 319.29C377.058 318.951 375.193 319.544 372.734 320.603C378.585 332.208 393.509 372.191 397.198 382.102C399.403 381.679 401.184 381.001 401.311 380.281Z" fill="#E5E5E5"/>
<path d="M214.878 303.449C214.878 303.449 252.699 402.56 268.641 403.873C284.584 405.186 349.286 361.772 349.286 361.772L337.245 337.672L282.591 355.673L268.981 293.453L214.878 303.449Z" fill="#3B2645"/>
<g opacity="0.5">
<path opacity="0.5" d="M268.981 293.495L214.878 303.449C214.878 303.449 224.588 328.862 236.206 354.105L273.475 314.249L268.981 293.495Z" fill="#3B2645"/>
</g>
<path d="M115.493 446.397L108.2 463.297C108.2 463.297 110.574 465.542 110.405 470.412C110.235 475.283 117.528 480.196 120.793 479.222C124.058 478.248 124.609 476.554 129.485 478.206L141.102 454.91L115.493 446.397Z" fill="#FFEDE5"/>
<path d="M112.949 452.284C112.949 452.284 122.955 462.746 136.057 464.949L141.06 454.91L115.493 446.355L112.949 452.284Z" fill="#86543D"/>
<path d="M258.338 260.035C258.338 260.035 280.471 285.66 268.938 305.99C257.405 326.321 188.675 363.678 184.011 375.156C179.347 386.634 176.718 399.891 167.178 415.817C157.638 431.742 142.417 459.824 142.417 459.824C142.417 459.824 119.393 458.934 111.889 448.981C111.889 448.981 149.031 355.08 157.893 342.924C166.754 330.768 208.561 279.264 208.561 279.264L207.713 269.48L258.338 260.035Z" fill="#3B2645"/>
<path d="M131.944 456.478C131.901 456.478 131.901 456.478 131.859 456.478C131.774 456.435 131.689 456.308 131.774 456.181C132.198 455.292 173.114 368.21 181.297 358.045C184.308 354.275 193.169 345.423 203.388 335.173C220.899 317.638 242.65 295.825 245.576 289.133C250.155 278.714 247.102 264.059 247.06 263.889C247.017 263.762 247.102 263.678 247.229 263.635C247.357 263.593 247.441 263.678 247.484 263.805C247.526 263.932 250.579 278.756 245.957 289.302C242.989 296.037 221.196 317.892 203.685 335.469C193.466 345.719 184.647 354.529 181.637 358.299C173.496 368.422 132.58 455.461 132.198 456.351C132.113 456.435 132.029 456.478 131.944 456.478Z" fill="white"/>
<path d="M126.135 455.165C126.093 455.165 126.093 455.165 126.05 455.165C125.966 455.122 125.881 454.995 125.966 454.868C126.39 453.979 168.832 364.271 173.75 356.731C176.252 352.877 191.177 337.121 205.593 321.916C219.839 306.88 234.594 291.293 237.435 287.142C243.117 278.841 241.93 265.372 241.93 265.245C241.93 265.118 242.014 265.033 242.142 265.033C242.269 265.033 242.354 265.118 242.354 265.245C242.354 265.372 243.583 279.01 237.774 287.439C234.891 291.632 220.136 307.218 205.89 322.297C191.474 337.502 176.591 353.258 174.09 357.07C169.214 364.61 126.729 454.275 126.305 455.165C126.305 455.122 126.22 455.165 126.135 455.165Z" fill="white"/>
<path d="M120.75 479.265C117.528 480.196 110.193 475.326 110.362 470.455C110.532 465.584 108.157 463.339 108.157 463.339C96.1159 470.963 72.6687 463.678 69.2343 463.509C65.7999 463.339 59.1007 471.132 60.0335 472.615C60.9663 474.097 115.111 504.339 117.528 504.042C119.945 503.746 129.4 478.29 129.4 478.29C124.566 476.596 124.015 478.333 120.75 479.265Z" fill="#FA674E"/>
<path d="M60.0758 472.615C60.9662 474.097 115.153 504.339 117.57 504.042C118.164 503.958 119.224 502.348 120.411 499.934C108.454 494.809 71.227 473.801 62.0686 468.591C60.627 470.285 59.6942 471.98 60.0758 472.615Z" fill="#E5E5E5"/>
<g opacity="0.5">
<path opacity="0.5" d="M208.561 279.264C208.561 279.264 233.704 276.13 233.449 276.215C233.195 276.299 208.221 275.113 208.221 275.113L208.561 279.264Z" fill="#3B2645"/>
</g>
</g>
<defs>
<clipPath id="clip0_6_3747">
<rect width="477" height="516" fill="white" transform="translate(-19 -12)"/>
</clipPath>
</defs>
</svg>
