<svg width="440" height="505" viewBox="0 0 440 505" fill="none" xmlns="http://www.w3.org/2000/svg">
<g clip-path="url(#clip0_6_6314)">
<path d="M-9 133.677C-9 133.677 7.932 82.1054 43.3056 95.4865C92.6328 114.114 219.072 412.036 351.754 412.036C419.767 412.036 450 359.976 450 359.976V-44.4251H-9V133.677Z" fill="#F178B6"/>
<path d="M196.142 168.534C196.142 168.534 199.162 148.003 222.295 148.003C245.429 148.003 256.649 174.266 261.871 189.675C267.094 205.083 280.558 219.597 298.102 228.176C315.646 236.754 328.906 245.983 326.662 265.416C326.662 265.416 364.198 294.688 292.675 300.095C221.153 305.503 186.024 260.659 190.349 237.567C194.674 214.475 166.766 183.17 196.142 168.534Z" fill="#3B2645"/>
<path d="M239.431 217.808C239.431 217.808 236.167 249.357 250.039 252.122C250.039 252.122 255.792 308.755 223.438 308.755C191.083 308.755 194.388 253.829 194.388 253.829C194.388 253.829 208.178 250.211 207.077 219.76C205.975 189.309 239.88 196.627 239.431 217.808Z" fill="#FFEDE5"/>
<path d="M229.802 220.614C232.536 210.246 218.46 208.132 208.994 207.848C207.648 210.897 206.873 214.84 207.036 219.76C207.24 224.069 207.036 228.419 206.506 232.729C211.891 233.136 226.498 233.095 229.802 220.614Z" fill="#86543D"/>
<path d="M203.14 210.939C206.059 209.939 206.905 204.721 205.03 199.285C203.155 193.849 199.268 190.253 196.348 191.253C193.429 192.253 192.583 197.471 194.458 202.907C196.333 208.343 200.22 211.939 203.14 210.939Z" fill="#86543D"/>
<path d="M251.732 202.858C253.608 197.422 252.761 192.205 249.842 191.205C246.922 190.205 243.035 193.801 241.16 199.237C239.285 204.673 240.131 209.89 243.05 210.89C245.97 211.89 249.857 208.294 251.732 202.858Z" fill="#86543D"/>
<path d="M197.897 173.616C197.897 173.616 195.653 228.054 221.52 228.176C241.634 228.257 247.387 203.823 247.714 176.299C248.04 148.775 198.223 152.475 197.897 173.616Z" fill="#FFEDE5"/>
<path d="M223.56 212.238C219.235 212.238 215.441 209.637 215.4 209.596C215.196 209.474 215.155 209.23 215.318 209.027C215.441 208.823 215.686 208.783 215.89 208.945C215.971 208.986 223.315 213.987 228.742 209.718C228.905 209.596 229.19 209.596 229.313 209.799C229.435 210.002 229.435 210.246 229.231 210.368C227.395 211.751 225.437 212.238 223.56 212.238Z" fill="#472938"/>
<path d="M206.75 189.715C206.75 189.715 210.137 191.87 215.849 190.122C215.849 190.081 210.994 195.041 206.75 189.715Z" fill="#472938"/>
<path d="M239.227 190.162C239.227 190.162 235.841 192.317 230.129 190.569C230.129 190.569 234.984 195.529 239.227 190.162Z" fill="#472938"/>
<path d="M204.792 183.088C204.792 183.088 209.076 178.372 215.318 179.836C218.501 180.568 217.277 176.665 211.524 176.909C205.771 177.153 204.792 183.088 204.792 183.088Z" fill="#472938"/>
<path d="M241.512 183.088C241.512 183.088 237.228 178.372 230.986 179.836C227.803 180.568 229.027 176.665 234.78 176.909C240.533 177.153 241.512 183.088 241.512 183.088Z" fill="#472938"/>
<path d="M222.581 203.132C221.357 203.132 218.746 202.237 217.848 201.343C217.522 201.018 217.399 200.692 217.44 200.367C217.522 199.879 217.889 198.334 218.419 196.383C219.113 193.578 220.011 190.122 220.296 188.414C220.582 186.788 220.296 185.081 219.521 183.617C219.399 183.414 219.48 183.17 219.684 183.048C219.888 182.926 220.133 183.007 220.255 183.21C221.112 184.837 221.439 186.707 221.112 188.536C220.827 190.284 219.929 193.781 219.235 196.586C218.746 198.456 218.338 200.083 218.297 200.489C218.297 200.53 218.338 200.611 218.46 200.774C219.317 201.627 222.01 202.441 222.785 202.319C223.805 202.156 225.927 201.18 226.661 200.326C226.824 200.164 227.069 200.164 227.232 200.286C227.395 200.448 227.395 200.692 227.273 200.855C226.375 201.831 224.091 202.928 222.907 203.091C222.744 203.132 222.663 203.132 222.581 203.132Z" fill="#472938"/>
<path d="M198.264 187.56C198.264 187.56 199.896 174.591 203.935 169.835C203.935 169.835 210.708 166.826 221.479 173.209C232.25 179.592 239.798 184.959 249.794 183.373C249.794 183.373 250.733 152.434 224.906 154.101C199.08 155.768 193.776 169.225 198.264 187.56Z" fill="#3B2645"/>
<path d="M368.93 378.723C368.522 378.073 367.298 379.171 367.298 379.171C367.298 379.171 366.034 377.748 362.606 378.764C359.179 379.781 349.02 388.481 349.02 388.481C344.45 388.4 336.984 392.872 336.984 392.872C336.984 392.872 331.354 390.554 326.254 382.911C321.154 375.268 315.605 371.527 315.605 371.527C315.605 371.527 303.65 323.635 295.572 293.753C287.371 297.209 276.722 310.828 269.134 321.806C269.297 326.969 269.46 330.262 269.46 330.262C269.46 330.262 296.062 400.596 299.489 402.71C302.916 404.824 342.043 409.54 342.451 409.256C342.859 408.971 346.45 409.906 347.918 409.256C349.387 408.605 351.182 409.662 352.978 408.443C354.773 407.223 357.874 409.093 359.138 407.914C360.403 406.735 362.606 407.223 364.075 406.532C365.544 405.841 373.745 394.295 373.908 392.221C374.071 390.148 369.338 379.374 368.93 378.723Z" fill="#FFEDE5"/>
<path d="M275.988 307.779C275.988 307.779 289.901 331.441 278.885 354.737L269.419 330.181L275.988 307.779Z" fill="#86543D"/>
<path d="M295.531 293.672C292.634 282.939 290.227 274.523 289.044 271.474C284.556 259.765 276.274 259.236 276.274 259.236C268.114 259.358 268.522 302.941 269.093 321.724C276.682 310.747 287.33 297.168 295.531 293.672Z" fill="#FA674E"/>
<path d="M306.547 374.007C306.384 374.007 306.221 373.885 306.139 373.723C306.098 373.52 306.221 373.276 306.425 373.235L314.421 371.121C314.625 371.08 314.87 371.202 314.911 371.405C314.952 371.609 314.829 371.853 314.625 371.893L306.629 374.007C306.629 374.007 306.588 374.007 306.547 374.007Z" fill="#472938"/>
<path d="M346.123 401.694C345.919 401.694 345.715 401.531 345.715 401.287C345.511 396.327 339.636 396.124 339.391 396.124C339.146 396.124 338.983 395.921 338.983 395.718C338.983 395.474 339.187 395.311 339.391 395.311C339.473 395.311 346.246 395.555 346.49 401.247C346.572 401.491 346.368 401.694 346.123 401.694C346.164 401.694 346.164 401.694 346.123 401.694Z" fill="#472938"/>
<path d="M344.328 405.394C344.287 405.394 344.206 405.394 344.165 405.353C343.961 405.272 343.879 405.028 343.961 404.824C344.45 403.767 348.857 394.254 350.693 393.034C352.202 392.018 354.038 392.343 354.773 392.994C355.262 393.4 355.099 393.807 355.058 393.929C354.854 394.376 352.488 400.23 351.305 403.239C351.223 403.442 350.978 403.564 350.774 403.483C350.57 403.401 350.448 403.158 350.53 402.954C350.652 402.588 353.834 394.701 354.283 393.685C354.202 393.603 353.998 393.441 353.59 393.36C353.263 393.278 352.202 393.075 351.142 393.766C349.754 394.701 346.001 402.344 344.654 405.231C344.614 405.312 344.491 405.394 344.328 405.394Z" fill="#472938"/>
<path d="M357.221 402.344C356.976 402.344 356.813 402.182 356.813 401.938C356.813 401.857 356.813 401.857 357.955 397.832C358.894 394.539 360.403 389.172 360.566 388.318C360.322 388.074 359.179 387.586 358.404 387.83C357.792 388.034 355.915 390.798 354.528 393.238C354.406 393.441 354.161 393.482 353.957 393.4C353.753 393.278 353.712 393.034 353.794 392.831C354.528 391.571 356.976 387.424 358.118 387.017C359.098 386.692 360.362 387.139 360.934 387.546C361.219 387.749 361.382 387.993 361.382 388.196C361.382 388.44 360.811 390.514 358.73 397.994C358.2 399.905 357.67 401.735 357.629 401.938C357.629 402.182 357.425 402.344 357.221 402.344Z" fill="#472938"/>
<path d="M362.973 401.491C362.933 401.491 362.933 401.491 362.892 401.491C362.688 401.45 362.525 401.206 362.565 401.003C363.993 394.66 366.074 384.984 366.115 383.927C365.952 383.683 365.217 383.277 363.953 383.277C363.259 383.277 361.505 385.594 360.321 387.749C360.199 387.952 359.954 388.034 359.75 387.912C359.546 387.79 359.465 387.546 359.587 387.342C360.24 386.204 362.443 382.464 363.953 382.464C365.381 382.464 366.564 382.952 366.89 383.643C366.972 383.805 367.176 384.253 363.341 401.165C363.341 401.369 363.177 401.491 362.973 401.491Z" fill="#472938"/>
<path d="M366.034 383.683C365.871 383.683 365.707 383.561 365.626 383.399C364.973 381.325 366.891 379.008 366.972 378.927C367.135 378.764 367.38 378.723 367.543 378.886C367.707 379.049 367.747 379.293 367.584 379.455C367.584 379.496 365.871 381.529 366.401 383.196C366.483 383.399 366.36 383.643 366.115 383.724C366.115 383.683 366.075 383.683 366.034 383.683Z" fill="#472938"/>
<path d="M363.871 397.547C363.79 397.547 363.708 397.506 363.667 397.466C363.463 397.344 363.423 397.1 363.545 396.897L366.891 391.855L365.911 385.757C365.871 385.554 366.034 385.31 366.238 385.31C366.442 385.269 366.687 385.432 366.687 385.635L367.747 392.059L364.239 397.384C364.116 397.466 363.994 397.547 363.871 397.547Z" fill="#472938"/>
<path d="M80.9232 385.513C81.2904 384.862 82.5552 385.879 82.5552 385.879C82.5552 385.879 83.7792 384.415 87.2472 385.31C90.7151 386.204 101.201 394.457 101.201 394.457C105.73 394.213 113.441 398.36 113.441 398.36C113.441 398.36 118.99 395.799 123.804 387.952C128.618 380.106 134.004 376.121 134.004 376.121C134.004 376.121 144 327.823 150.895 297.575C159.218 300.705 170.398 313.878 178.435 324.529C178.476 329.693 178.476 332.986 178.476 332.986C178.476 332.986 154.73 404.296 151.385 406.573C148.039 408.849 109.116 415.07 108.749 414.826C108.382 414.582 104.791 415.639 103.282 415.029C101.772 414.419 100.058 415.598 98.1816 414.419C96.3048 413.24 93.3264 415.232 91.98 414.135C90.6336 413.037 88.512 413.565 86.9616 412.956C85.4112 412.346 76.8024 401.125 76.5576 399.051C76.3128 396.978 80.556 386.163 80.9232 385.513Z" fill="#FFEDE5"/>
<path d="M170.969 310.95C170.969 310.95 158.035 335.181 169.949 357.989L178.394 333.067L170.969 310.95Z" fill="#86543D"/>
<path d="M150.854 297.615C153.302 286.801 155.383 278.304 156.444 275.173C160.442 263.302 168.725 262.408 168.725 262.408C176.885 262.204 178.19 305.787 178.394 324.57C170.357 313.959 159.177 300.787 150.854 297.615Z" fill="#FA674E"/>
<path d="M143.062 378.317C143.021 378.317 143.021 378.317 142.98 378.317L134.902 376.528C134.698 376.487 134.534 376.243 134.575 376.04C134.616 375.837 134.861 375.674 135.065 375.715L143.143 377.504C143.347 377.545 143.51 377.788 143.47 377.992C143.429 378.195 143.225 378.317 143.062 378.317Z" fill="#472938"/>
<path d="M104.587 407.548C104.342 407.548 104.179 407.345 104.179 407.142C104.22 401.409 110.952 400.921 111.034 400.921C111.238 400.921 111.442 401.084 111.482 401.287C111.482 401.531 111.319 401.694 111.115 401.735C110.87 401.735 105.036 402.182 105.036 407.142C104.995 407.386 104.832 407.548 104.587 407.548Z" fill="#472938"/>
<path d="M106.586 411.167C106.423 411.167 106.301 411.085 106.219 410.963C104.791 408.158 100.711 400.637 99.2831 399.742C98.1815 399.092 97.1207 399.336 96.7943 399.417C96.4271 399.539 96.2231 399.702 96.1415 399.783C96.6311 400.8 100.099 408.565 100.262 408.931C100.344 409.134 100.262 409.378 100.058 409.459C99.8543 409.54 99.6095 409.459 99.5279 409.256C98.1815 406.288 95.6111 400.515 95.4071 400.068C95.2439 399.783 95.3663 399.417 95.6519 399.133C96.3455 398.482 98.1815 398.076 99.7319 399.011C101.649 400.149 106.423 409.5 106.953 410.557C107.035 410.76 106.994 411.004 106.79 411.085C106.709 411.167 106.627 411.167 106.586 411.167Z" fill="#472938"/>
<path d="M93.5304 408.605C93.3264 408.605 93.1632 408.483 93.1224 408.28C93.0816 408.077 92.5512 406.451 91.9392 404.54C89.4912 397.019 88.8384 394.904 88.8384 394.66C88.8384 394.417 88.9608 394.213 89.2464 394.01C89.8176 393.563 91.0416 393.075 92.0616 393.36C93.2448 393.685 95.856 397.75 96.6312 398.97C96.7536 399.173 96.672 399.417 96.5088 399.539C96.3048 399.661 96.06 399.58 95.9376 399.417C94.428 397.018 92.4288 394.335 91.8576 394.173C91.0416 393.929 89.94 394.498 89.6952 394.742C89.8992 395.474 91.6536 401.003 92.7552 404.337C93.9792 408.118 93.9792 408.118 93.9792 408.199C93.9792 408.402 93.7752 408.605 93.5304 408.605C93.5712 408.605 93.5712 408.605 93.5304 408.605Z" fill="#472938"/>
<path d="M87.7775 408.036C87.6143 408.036 87.4511 407.914 87.3695 407.752C82.8815 390.961 83.0855 390.514 83.1263 390.351C83.4119 389.619 84.5543 389.091 86.0231 389.05H86.0639C87.5735 389.05 89.8991 392.668 90.5927 393.766C90.7151 393.969 90.6335 394.213 90.4703 394.335C90.2663 394.457 90.0215 394.376 89.8991 394.213C88.6343 392.14 86.7983 389.863 86.1047 389.863C84.8807 389.904 84.1463 390.351 83.9831 390.595C84.0647 391.652 86.5535 401.247 88.2263 407.508C88.2671 407.711 88.1447 407.955 87.9407 407.996C87.8183 407.996 87.7775 408.036 87.7775 408.036Z" fill="#472938"/>
<path d="M84.0241 390.392C83.9833 390.392 83.9425 390.392 83.9017 390.392C83.6977 390.351 83.5345 390.107 83.6161 389.904C84.0649 388.196 82.3105 386.245 82.2697 386.204C82.1065 386.041 82.1473 385.798 82.3105 385.635C82.4737 385.472 82.7185 385.513 82.8817 385.676C82.9633 385.757 84.9625 387.993 84.3913 390.107C84.3505 390.27 84.1873 390.392 84.0241 390.392Z" fill="#472938"/>
<path d="M86.7167 404.093C86.5943 404.093 86.4719 404.052 86.3903 403.93L82.6775 398.767L83.4527 392.302C83.4935 392.099 83.6975 391.937 83.9015 391.937C84.1055 391.977 84.2687 392.18 84.2687 392.384L83.5343 398.523L87.0839 403.442C87.2063 403.605 87.1655 403.889 87.0023 404.011C86.8799 404.093 86.7983 404.093 86.7167 404.093Z" fill="#472938"/>
<path d="M249.998 252.122L276.274 259.236C276.274 259.236 273.091 301.559 278.518 310.3C283.944 319.041 280.925 338.922 274.356 348.801C274.356 348.801 263.83 382.545 266.686 390.473C269.542 398.401 279.13 415.923 279.13 415.923C279.13 415.923 236.33 437.552 174.396 418.322C174.396 418.322 186.677 392.546 184.759 382.667C182.842 372.788 169.582 345.264 169.745 332.254C169.908 319.244 174.07 284.524 167.99 262.57L194.266 253.829C194.266 253.829 194.714 305.381 224.621 305.381C254.527 305.381 249.998 252.122 249.998 252.122Z" fill="#FA674E"/>
<path d="M274.397 348.801C274.397 348.801 271.133 355.306 250.406 358.03C250.406 358.03 270.358 359.534 268.358 371.487L274.397 348.801Z" fill="#543753"/>
<path d="M172.601 346.971C172.601 346.971 177.497 356.119 199.651 358.192C199.651 358.192 175.375 354.533 179.904 367.787L172.601 346.971Z" fill="#543753"/>
<path d="M169.867 334.531C169.663 334.531 169.459 334.368 169.459 334.165C169.419 333.474 169.378 332.864 169.419 332.254C169.459 329.327 169.704 325.343 169.949 320.708C170.316 314.366 170.765 306.478 170.887 298.388C170.887 298.144 171.051 297.981 171.295 297.981C171.54 297.981 171.703 298.185 171.703 298.388C171.581 306.478 171.132 314.406 170.765 320.748C170.479 325.383 170.275 329.367 170.235 332.295C170.235 332.864 170.235 333.474 170.275 334.124C170.275 334.287 170.112 334.49 169.867 334.531Z" fill="#472938"/>
<path d="M278.518 310.706C278.395 310.706 278.232 310.625 278.15 310.503C276.355 307.617 275.294 300.99 275.009 290.826C275.009 290.582 275.172 290.419 275.417 290.419C275.621 290.419 275.825 290.582 275.825 290.826C276.11 300.868 277.13 307.373 278.844 310.097C278.966 310.3 278.885 310.544 278.722 310.666C278.681 310.666 278.599 310.706 278.518 310.706Z" fill="#472938"/>
<path d="M175.824 415.314C175.824 415.314 198.876 424.055 225.845 423.119C252.814 422.184 306.792 402.751 332.006 406.735C357.221 410.719 355.589 421.412 354.732 426.331C353.875 431.251 301.529 505.041 255.547 505.041H185.086C185.086 505.041 98.5081 450.684 95.6929 434.991C92.8777 419.298 94.9177 409.906 119.071 409.459C143.225 409.012 169.337 413.2 175.824 415.314Z" fill="#3B2645"/>
<path d="M224.947 439.26C224.947 439.26 259.382 424.99 288.146 420.07C288.146 420.07 306.67 448.692 301.243 472.882C301.202 472.882 235.351 458.49 224.947 439.26Z" fill="#FFEDE5"/>
<path d="M224.947 439.26C224.947 439.26 308.261 450.115 301.202 472.882C294.144 495.649 224.947 439.26 224.947 439.26Z" fill="#86543D"/>
<path d="M262.402 480.444C262.402 480.444 177.007 487.762 158.28 491.584C139.553 495.405 120.581 493.698 108.994 497.723C97.4064 501.748 91.0008 504.837 89.6136 505C88.2264 505.163 85.044 487.233 90.8784 480.891C90.8784 480.891 89.0832 474.427 97.2432 469.426C105.403 464.426 118.949 471.012 123.967 469.426C128.986 467.841 132.576 466.377 137.921 467.515C143.266 468.654 156.322 471.866 156.322 471.866C156.322 471.866 223.56 429.299 262.402 480.444Z" fill="#FFEDE5"/>
<path d="M156.362 471.866L207.077 485.607L262.402 480.444C262.402 480.444 237.187 454.587 202.385 456.986C167.582 459.384 156.362 471.866 156.362 471.866Z" fill="#86543D"/>
<path d="M174.029 420.761C174.029 420.761 200.222 426.047 238.085 445.805C275.947 465.564 307.282 457.474 318.338 461.295C329.395 465.117 350.366 462.149 353.794 465.117C357.221 468.085 359.465 473.289 357.425 475.525C357.425 475.525 366.564 496.422 365.707 497.804C364.85 499.186 361.668 499.064 360.158 498.739C358.649 498.414 345.348 491.828 330.048 489.104C314.748 486.38 272.561 480.525 238.942 478.818C205.322 477.11 156.362 473.736 156.362 473.736C156.362 473.736 157.505 432.633 174.029 420.761Z" fill="#FFEDE5"/>
<path d="M354.65 476.378C353.345 476.378 351.59 476.135 349.347 475.362C349.143 475.281 349.02 475.037 349.102 474.833C349.183 474.63 349.428 474.508 349.632 474.59C354.691 476.378 357.139 475.159 357.18 475.159C357.384 475.037 357.629 475.118 357.71 475.321C357.833 475.525 357.751 475.769 357.547 475.85C357.506 475.85 356.568 476.378 354.65 476.378Z" fill="#472938"/>
<path d="M94.9992 482.151C92.1432 482.151 90.756 481.257 90.6744 481.216C90.4704 481.094 90.4296 480.85 90.552 480.647C90.6744 480.444 90.9192 480.403 91.1232 480.525C91.1232 480.525 92.592 481.42 95.448 481.298C98.4264 481.216 101.65 479.753 101.69 479.753C101.894 479.672 102.139 479.753 102.221 479.956C102.302 480.159 102.221 480.403 102.017 480.485C101.894 480.566 98.5896 481.989 95.4888 482.111C95.3256 482.151 95.1624 482.151 94.9992 482.151Z" fill="#472938"/>
</g>
<defs>
<clipPath id="clip0_6_6314">
<rect width="459" height="516" fill="white" transform="translate(-9 -11)"/>
</clipPath>
</defs>
</svg>
