<svg width="440" height="478" viewBox="0 0 440 478" fill="none" xmlns="http://www.w3.org/2000/svg">
<g clip-path="url(#clip0_55_2087)">
<path d="M440 278.913C440 278.913 355.25 470.811 223.734 477.411C92.2176 484.01 -1 412.672 -1 412.672V-43.5616H440V278.913Z" fill="#F178B6"/>
<path d="M165.169 372.525C141.414 432.353 148.195 472.775 148.195 472.775C170.735 476.9 193.628 478.589 216.521 477.843C245.529 476.9 272.342 467.865 296.646 454.155C297.469 420.922 286.14 391.263 278.065 374.41C226.125 399.591 180.81 380.774 165.169 372.525Z" fill="#FA674E"/>
<path d="M172.146 356.419C169.598 361.918 167.246 367.3 165.208 372.525C180.81 380.774 226.164 399.63 278.065 374.41C273.635 365.179 270.146 359.797 270.146 359.797C270.146 359.797 204.094 287.831 172.146 356.419Z" fill="#FEF9EF"/>
<path d="M223.734 477.411V456.709L241.687 444.217L229.81 460.833L231.025 476.821L223.734 477.411Z" fill="#543753"/>
<path d="M138.395 226.785C138.395 226.785 136.592 227.453 136.278 245.758C135.965 264.064 134.593 300.48 134.593 300.48C134.593 300.48 118.011 285.042 116.796 277.263C115.581 269.485 116.09 262.493 115.267 258.211C114.444 253.929 114.287 242.223 114.64 240.023C114.993 237.823 109.426 237.47 107.898 240.73C106.369 243.991 105.859 254.833 105.075 255.226C104.291 255.618 95.3143 256.443 94.4519 258.408C93.5895 260.372 95.1183 263.946 93.7855 266.932C92.4527 269.918 93.9031 272.039 93.7855 274.317C93.6679 276.596 93.1191 277.46 94.1383 280.917C95.1575 284.374 95.3535 287.281 96.9999 287.831L98.6463 288.381L104.409 290.345C104.409 290.345 129.105 346.087 141.335 347.305C153.566 348.523 159.955 338.781 161.484 330.924C163.013 323.068 171.206 276.006 171.206 276.006L138.395 226.785Z" fill="#FFEDE5"/>
<path d="M152.272 265.518L165.835 306.804L171.206 275.967L152.272 265.518Z" fill="#86543D"/>
<path d="M134.593 300.44C134.593 300.44 146.118 310.143 149.92 318.118C149.92 318.118 143.766 301.776 134.828 294.194L134.593 300.44Z" fill="#86543D"/>
<path d="M100.567 287.595C100.567 287.595 112.602 287.281 113.582 286.534C114.562 285.788 114.601 282.252 114.091 281.82C114.091 281.82 115.071 276.674 114.17 275.339C114.17 275.339 114.522 271.528 114.13 269.289C114.13 269.289 116.13 280.76 115.894 282.567C115.659 284.374 116.6 287.438 111.19 288.341C105.781 289.245 100.567 287.595 100.567 287.595Z" fill="#86543D"/>
<path d="M114.169 275.417C114.13 275.417 114.13 275.417 114.091 275.417C113.895 275.378 113.738 275.181 113.777 274.985C114.287 271.803 113.464 265.636 113.464 265.596V265.518V265.439C113.817 264.064 114.561 260.175 113.542 258.997C112.641 257.936 103.938 257.661 98.6463 257.74C98.4503 257.74 98.2543 257.583 98.2543 257.347C98.2543 257.111 98.4111 256.954 98.6463 256.954C100.998 256.915 112.719 256.836 114.13 258.486C115.541 260.136 114.444 264.732 114.248 265.557C114.326 266.303 115.032 271.96 114.522 275.103C114.522 275.299 114.326 275.417 114.169 275.417Z" fill="#472938"/>
<path d="M113.856 265.911C113.856 265.911 113.817 265.911 113.856 265.911L101.234 265.321C100.998 265.321 100.842 265.125 100.842 264.928C100.842 264.693 100.998 264.536 101.234 264.536L113.856 265.125C114.091 265.125 114.248 265.321 114.248 265.518C114.248 265.753 114.052 265.911 113.856 265.911Z" fill="#472938"/>
<path d="M114.052 282.213H101.626C101.39 282.213 101.234 282.056 101.234 281.82C101.234 281.584 101.39 281.427 101.626 281.427H114.052C114.287 281.427 114.444 281.584 114.444 281.82C114.444 282.056 114.287 282.213 114.052 282.213Z" fill="#472938"/>
<path d="M114.287 273.649H100.018C99.7831 273.649 99.6263 273.492 99.6263 273.257C99.6263 273.021 99.7831 272.864 100.018 272.864H114.287C114.522 272.864 114.679 273.021 114.679 273.257C114.679 273.492 114.522 273.649 114.287 273.649Z" fill="#472938"/>
<path d="M327.065 207.654L350.82 206.75C351.839 206.711 352.702 207.497 352.741 208.518L354.583 257.622C354.622 258.643 353.838 259.507 352.819 259.547L329.064 260.45C328.045 260.49 327.182 259.704 327.143 258.682L325.301 209.579C325.262 208.518 326.046 207.693 327.065 207.654Z" fill="#3B2645"/>
<path d="M328.986 258.84C328.829 258.84 328.711 258.722 328.711 258.565L326.869 209.461C326.869 209.382 326.908 209.304 326.947 209.264C326.986 209.225 327.065 209.186 327.143 209.186L350.898 208.282C351.055 208.282 351.173 208.4 351.173 208.557L353.015 257.661C353.015 257.818 352.898 257.936 352.741 257.936L328.986 258.84Z" fill="#FEF9EF"/>
<path d="M253.408 201.565C253.408 201.565 278.339 204.079 282.965 224.349C287.59 244.619 296.136 292.78 296.136 292.78C296.136 292.78 314.325 263.593 315.775 258.957C317.226 254.322 321.93 238.648 321.773 233.306C321.616 227.963 326.83 231.774 326.83 238.137L327.614 259.193C327.653 259.9 328.241 260.45 328.946 260.411H328.986L353.054 258.604C353.878 258.565 354.466 257.858 354.426 257.033V256.758C354.426 256.758 352.702 253.183 353.211 251.533C353.721 249.883 357.837 249.726 358.307 250.119C358.778 250.512 361.326 255.422 361.247 256.758C361.169 258.093 358.19 262.257 356.23 262.886C354.27 263.514 334.748 268.228 330.75 274.278C326.751 280.327 309.268 333.32 295.078 337.406C280.887 341.491 267.05 302.955 263.796 291.68C260.542 280.406 253.408 201.565 253.408 201.565Z" fill="#FFEDE5"/>
<path d="M259.68 264.064C261.209 277.067 262.738 287.988 263.796 291.641C265.325 296.905 269.166 308.179 274.302 318.236L275.87 244.187L259.68 264.064Z" fill="#86543D"/>
<path d="M353.76 236.134C353.76 236.134 362.266 240.494 362.11 242.341C361.953 244.187 360.346 247.487 358.699 247.33C357.053 247.172 353.956 245.523 353.094 243.598C352.231 241.673 351.8 235.505 353.76 236.134Z" fill="#FFEDE5"/>
<path d="M354.191 242.537C354.191 242.537 362.698 246.898 362.541 248.744C362.384 250.59 360.777 253.89 359.13 253.733C357.484 253.576 354.387 251.926 353.525 250.001C352.662 248.076 352.231 241.909 354.191 242.537Z" fill="#FFEDE5"/>
<path d="M354.191 228.356C354.191 228.356 362.698 232.716 362.541 234.563C362.384 236.409 360.777 239.709 359.13 239.552C357.484 239.395 354.387 237.745 353.525 235.82C352.662 233.895 352.231 227.688 354.191 228.356Z" fill="#FFEDE5"/>
<path d="M288.453 308.376C288.374 308.376 288.335 308.376 288.257 308.336C288.061 308.258 287.982 307.983 288.1 307.826L295.783 292.623C295.862 292.427 296.136 292.348 296.293 292.466C296.489 292.545 296.567 292.82 296.45 292.977L288.766 308.179C288.727 308.297 288.61 308.376 288.453 308.376Z" fill="#472938"/>
<path d="M178.34 329.942C178.379 342.709 172.146 356.38 172.146 356.38C172.146 356.38 215.305 380.656 270.107 359.758C270.107 359.758 263.404 342.473 264.266 324.403C219.97 316.154 178.34 329.942 178.34 329.942Z" fill="#FFEDE5"/>
<path d="M138.395 226.785C135.181 231.617 147.568 255.658 159.406 279.974C170.186 255.815 163.875 226.47 160.23 213.861C151.88 217.082 141.649 221.835 138.395 226.785Z" fill="#FFEDE5"/>
<path d="M264.266 324.442C264.345 322.557 264.541 320.671 264.815 318.786C264.972 317.646 265.168 316.429 265.364 315.132C230.201 305.508 188.336 316.507 176.537 320.003C177.673 323.892 178.34 327.271 178.34 329.942C178.34 329.942 219.97 316.154 264.266 324.442Z" fill="#FEF9EF"/>
<path d="M159.406 281.27C159.25 281.27 159.132 281.192 159.054 281.035L150.312 262.179C150.234 261.982 150.312 261.747 150.508 261.668C150.704 261.589 150.939 261.668 151.018 261.864L159.759 280.72C159.838 280.917 159.759 281.152 159.563 281.231C159.524 281.27 159.446 281.27 159.406 281.27Z" fill="#472938"/>
<path d="M226.438 364.511C227.045 364.511 227.536 364.019 227.536 363.411C227.536 362.804 227.045 362.311 226.438 362.311C225.832 362.311 225.341 362.804 225.341 363.411C225.341 364.019 225.832 364.511 226.438 364.511Z" fill="#86543D"/>
<path d="M273.988 246.505C273.988 246.23 273.988 245.955 273.988 245.719C273.988 245.601 273.988 245.444 273.988 245.326C273.988 245.012 273.988 244.737 273.949 244.423C273.949 244.344 273.949 244.266 273.949 244.148C273.949 243.755 273.91 243.401 273.91 243.048V242.812C273.91 242.537 273.87 242.223 273.87 241.948C273.87 241.83 273.87 241.712 273.831 241.594C273.831 241.359 273.792 241.123 273.792 240.927L273.753 240.534C273.753 240.337 273.714 240.102 273.674 239.905C273.674 239.787 273.635 239.67 273.635 239.512C273.596 239.277 273.596 239.08 273.557 238.845C273.557 238.727 273.518 238.648 273.518 238.53C273.478 238.216 273.439 237.902 273.361 237.588C270.303 218.967 253.369 201.526 253.369 201.526C253.369 201.526 259.954 227.727 262.071 230.792C269.794 242.027 274.106 248.783 273.557 257.74C273.596 257.268 273.635 256.836 273.674 256.365C273.674 256.247 273.674 256.129 273.674 256.011C273.714 255.658 273.714 255.304 273.753 254.99C273.753 254.872 273.753 254.715 273.792 254.597C273.792 254.283 273.831 253.969 273.831 253.615L273.87 253.222C273.87 252.869 273.91 252.554 273.91 252.24C273.91 252.122 273.91 252.044 273.91 251.926C273.949 251.062 273.988 250.197 273.988 249.333C273.988 249.215 273.988 249.137 273.988 249.019C273.988 248.705 273.988 248.39 273.988 248.076V247.683C273.988 247.408 273.988 247.133 273.988 246.858V246.505Z" fill="#FFEDE5"/>
<path d="M262.071 230.831C259.954 227.767 253.408 201.565 253.408 201.565H248.43L172.146 209.736C172.146 209.736 166.776 211.307 160.23 213.821C163.836 226.431 170.186 255.815 159.406 279.935C166.502 294.548 173.362 309.24 176.498 320.003C188.297 316.468 230.162 305.508 265.325 315.132C267.638 300.283 272.106 276.635 273.557 257.779C274.106 248.822 269.794 242.066 262.071 230.831Z" fill="#FA674E"/>
<path d="M184.926 299.262C183.044 299.262 181.084 299.026 179.006 298.516C178.81 298.476 178.654 298.241 178.732 298.044C178.771 297.848 179.006 297.691 179.202 297.769C186.65 299.655 192.687 297.494 199.038 295.255C205.074 293.094 211.307 290.895 219.304 291.798C235.454 293.605 261.758 289.245 262.032 289.205C262.267 289.166 262.463 289.323 262.502 289.52C262.542 289.716 262.385 289.952 262.189 289.991C261.914 290.03 235.494 294.43 219.265 292.623C211.464 291.759 205.31 293.919 199.351 296.041C194.569 297.651 190.022 299.262 184.926 299.262Z" fill="#472938"/>
<path d="M245.215 96.8362C245.215 96.8362 265.678 98.8789 259.523 126.141C253.369 153.404 259.445 152.186 264.776 166.603C270.107 181.02 242.236 171.474 242.236 171.474C242.236 171.474 256.426 192.766 181.006 183.573C118.795 175.992 160.308 143.505 160.308 143.505C160.308 143.505 141.61 145.979 163.993 126.181C179.751 112.235 188.14 60.9707 245.215 96.8362Z" fill="#3B2645"/>
<path d="M231.652 172.26C231.652 172.26 225.341 194.455 234.004 198.579C240.668 201.761 248.43 201.565 248.43 201.565C248.43 201.565 245.764 260.411 212.836 261.04C179.908 261.668 172.146 209.736 172.146 209.736C172.146 209.736 185.553 205.022 189.551 195.79C193.55 186.559 193.746 173.635 193.746 173.635L231.652 172.26Z" fill="#FFEDE5"/>
<path d="M247.471 155.48C250.827 149.656 250.75 143.316 247.301 141.32C243.851 139.324 238.334 142.427 234.978 148.252C231.623 154.076 231.699 160.416 235.149 162.412C238.598 164.408 244.115 161.304 247.471 155.48Z" fill="#86543D"/>
<path d="M239.257 155.918C239.139 155.918 239.061 155.879 238.982 155.8C238.826 155.643 238.826 155.407 238.982 155.25L244.902 149.672C245.058 149.515 245.294 149.515 245.45 149.672C245.607 149.829 245.607 150.065 245.45 150.222L239.531 155.8C239.453 155.918 239.374 155.918 239.257 155.918Z" fill="#472938"/>
<path d="M185.793 157.985C189.67 157.066 191.56 151.016 190.015 144.471C188.47 137.927 184.075 133.366 180.199 134.285C176.322 135.204 174.432 141.254 175.977 147.799C177.522 154.344 181.917 158.904 185.793 157.985Z" fill="#FFEDE5"/>
<path d="M229.692 191.194C228.516 183.259 231.652 172.22 231.652 172.22L193.706 173.635C193.706 173.635 193.667 176.502 193.197 180.509C193.197 180.548 212.13 203.529 229.692 191.194Z" fill="#86543D"/>
<path d="M184.769 149.947C184.651 149.947 184.534 149.868 184.455 149.751L180.692 143.976C180.574 143.779 180.614 143.544 180.81 143.426C181.006 143.308 181.241 143.347 181.358 143.544L185.122 149.318C185.239 149.515 185.2 149.751 185.004 149.868C184.926 149.947 184.847 149.947 184.769 149.947Z" fill="#472938"/>
<path d="M187.278 108.503C187.278 108.503 173.793 181.452 205.466 189.034C237.14 196.615 248.43 128.577 247.606 114.435C246.783 100.293 191.982 96.0112 187.278 108.503Z" fill="#FFEDE5"/>
<path d="M229.418 141.855C230.437 142.051 231.103 143.033 230.947 144.054L230.751 145.194C230.555 146.215 229.575 146.883 228.555 146.726C227.536 146.529 226.87 145.547 227.027 144.526L227.223 143.387C227.419 142.365 228.399 141.658 229.418 141.855Z" fill="#472938"/>
<path d="M199.9 138.555C200.958 138.555 201.782 139.38 201.782 140.44V141.58C201.782 142.601 200.958 143.465 199.9 143.465C198.881 143.465 198.018 142.64 198.018 141.58V140.44C198.018 139.38 198.842 138.555 199.9 138.555Z" fill="#472938"/>
<path d="M236.317 139.89C236.317 139.89 234.906 137.769 230.829 137.062C226.752 136.355 225.458 136.591 225.419 135.294C225.38 133.998 234.514 131.995 236.317 139.89Z" fill="#472938"/>
<path d="M193.981 134.509C193.981 134.509 196.019 132.977 200.096 133.644C204.173 134.352 205.31 134.98 205.78 133.762C206.25 132.545 198.293 127.634 193.981 134.509Z" fill="#472938"/>
<path d="M201.742 162.321L218.677 164.246C218.677 164.246 216.05 175.717 208.563 174.381C201.115 173.085 201.742 162.321 201.742 162.321Z" fill="white"/>
<path d="M212.954 159.493C211.778 159.493 210.484 159.178 209.308 158.628C209.112 158.55 209.034 158.314 209.112 158.118C209.19 157.921 209.426 157.843 209.622 157.921C211.346 158.746 213.267 158.943 214.561 158.432C215.11 158.236 215.462 157.921 215.619 157.568C216.129 156.35 215.933 152.579 215.698 148.218L215.619 146.686C215.188 138.633 220.01 137.101 220.206 137.023C220.402 136.944 220.637 137.062 220.676 137.298C220.754 137.494 220.637 137.73 220.402 137.769C220.206 137.808 215.972 139.223 216.364 146.647L216.442 148.179C216.678 152.815 216.913 156.507 216.286 157.882C216.05 158.432 215.541 158.903 214.796 159.178C214.326 159.414 213.659 159.493 212.954 159.493Z" fill="#472938"/>
<path d="M242.236 149.083C242.236 149.083 244.784 129.402 236.317 118.638C236.317 118.638 229.143 132.23 217.383 127.516C217.383 127.516 201.233 141.54 184.769 137.455C168.305 133.369 174.146 94.7935 198.018 93.1436C221.891 91.4937 270.46 101.118 242.236 149.083Z" fill="#3B2645"/>
</g>
<defs>
<clipPath id="clip0_55_2087">
<rect width="441" height="478" fill="white" transform="translate(-1)"/>
</clipPath>
</defs>
</svg>
